<svg id="Logo_FIXED" data-name="Logo FIXED" xmlns="http://www.w3.org/2000/svg" width="326" height="326" viewBox="0 0 326 326">
  <defs>
    <style>
      .cls-1 {
        fill: #fff;
      }
    </style>
  </defs>
  <title>hatena_icon</title>
  <g>
    <path class="cls-1" d="M187.888,170.1q-12-13.415-33.36-15c12.708-3.442,21.887-8.472,27.711-15.268s8.649-15.709,8.649-27.094a48.544,48.544,0,0,0-5.824-23.917,43.075,43.075,0,0,0-16.945-16.415A72.694,72.694,0,0,0,145,64.817c-9-1.5-24.8-2.118-47.393-2.118H42.621V263.213H99.28q34.155,0,49.246-2.3c10.061-1.588,18.445-4.236,25.241-7.854A46.337,46.337,0,0,0,193.1,234.177c4.5-8.119,6.795-17.562,6.795-28.329C199.89,190.933,195.919,179.018,187.888,170.1ZM93.455,107.091h11.738q20.388,0,27.359,4.589c4.678,3.089,6.972,8.384,6.972,15.886s-2.559,12.355-7.5,15.356-14.209,4.413-27.712,4.413H93.455V107.091Zm46.6,115c-5.384,3.266-14.562,4.854-27.447,4.854H93.455V183.254H113.4c13.238,0,22.417,1.677,27.271,5.031s7.413,9.178,7.413,17.651-2.648,12.973-8.119,16.239Z"/>
    <path class="cls-1" d="M257.962,212.467a25.417,25.417,0,1,0,25.417,25.417h0A25.417,25.417,0,0,0,257.962,212.467Z"/>
    <rect class="cls-1" x="235.898" y="62.699" width="44.127" height="133.723"/>
  </g>
</svg>
