<svg id="Logo_FIXED" data-name="Logo FIXED" xmlns="http://www.w3.org/2000/svg" width="326" height="326" viewBox="0 0 326 326">
  <defs>
    <style>
      .cls-1 {
        fill: #fff;
      }
    </style>
  </defs>
  <title>twitter_icon</title>
  <path class="cls-1" d="M116.62,264.569c94.34,0,145.94-78.16,145.94-145.94,0-2.22,0-4.43-.15-6.63A104.356,104.356,0,0,0,288,85.449a102.39,102.39,0,0,1-29.46,8.07,51.471,51.471,0,0,0,22.55-28.37A102.783,102.783,0,0,1,248.52,77.6a51.34,51.34,0,0,0-87.41,46.78A145.62,145.62,0,0,1,55.4,70.789a51.33,51.33,0,0,0,15.88,68.47A50.912,50.912,0,0,1,48,132.839v.65a51.311,51.311,0,0,0,41.15,50.28,51.222,51.222,0,0,1-23.16.88,51.35,51.35,0,0,0,47.92,35.62,102.924,102.924,0,0,1-63.7,22,104.461,104.461,0,0,1-12.21-.74,145.208,145.208,0,0,0,78.62,23"/>
</svg>
